<svg width="1920" height="1080" viewBox="0 0 1920 1080" fill="none" xmlns="http://www.w3.org/2000/svg">
<g clip-path="url(#clip0_1184_951)">
<rect width="1920" height="1080" fill="#F7F7F7"/>
<circle cx="1137.08" cy="269.079" r="316.182" transform="rotate(163.199 1137.08 269.079)" fill="url(#paint0_linear_1184_951)" fill-opacity="0.66"/>
<circle cx="1873.52" cy="375.521" r="150.661" transform="rotate(-165 1873.52 375.521)" fill="url(#paint1_linear_1184_951)" fill-opacity="0.66"/>
<circle cx="152.286" cy="1071.29" r="174.094" transform="rotate(-126.404 152.286 1071.29)" fill="url(#paint2_linear_1184_951)" fill-opacity="0.66"/>
<circle cx="-31.3978" cy="577.602" r="85.6887" transform="rotate(106.604 -31.3978 577.602)" fill="url(#paint3_linear_1184_951)" fill-opacity="0.66"/>
<circle cx="293.039" cy="163.039" r="225.5" transform="rotate(-60 293.039 163.039)" fill="url(#paint4_linear_1184_951)" fill-opacity="0.66"/>
<circle cx="1515.26" cy="1077.26" r="385.637" transform="rotate(69.503 1515.26 1077.26)" fill="url(#paint5_linear_1184_951)" fill-opacity="0.66"/>
</g>
<defs>
<linearGradient id="paint0_linear_1184_951" x1="1137.08" y1="-47.1034" x2="1137.08" y2="585.261" gradientUnits="userSpaceOnUse">
<stop stop-color="#0070FF"/>
<stop offset="1" stop-color="white"/>
</linearGradient>
<linearGradient id="paint1_linear_1184_951" x1="1873.52" y1="224.86" x2="1873.52" y2="526.182" gradientUnits="userSpaceOnUse">
<stop stop-color="#0070FF"/>
<stop offset="1" stop-color="white"/>
</linearGradient>
<linearGradient id="paint2_linear_1184_951" x1="152.286" y1="897.193" x2="152.286" y2="1245.38" gradientUnits="userSpaceOnUse">
<stop stop-color="#0070FF"/>
<stop offset="1" stop-color="white"/>
</linearGradient>
<linearGradient id="paint3_linear_1184_951" x1="-31.3978" y1="491.913" x2="-31.3978" y2="663.291" gradientUnits="userSpaceOnUse">
<stop stop-color="#0070FF"/>
<stop offset="1" stop-color="white"/>
</linearGradient>
<linearGradient id="paint4_linear_1184_951" x1="293.039" y1="-62.4614" x2="293.039" y2="388.539" gradientUnits="userSpaceOnUse">
<stop stop-color="#0070FF"/>
<stop offset="1" stop-color="white"/>
</linearGradient>
<linearGradient id="paint5_linear_1184_951" x1="1515.26" y1="691.62" x2="1515.26" y2="1462.89" gradientUnits="userSpaceOnUse">
<stop stop-color="#0070FF"/>
<stop offset="1" stop-color="white"/>
</linearGradient>
<clipPath id="clip0_1184_951">
<rect width="1920" height="1080" fill="white"/>
</clipPath>
</defs>
</svg>
