<svg xmlns="http://www.w3.org/2000/svg" viewBox="0 0 121.48 121.48"><defs><style>.cls-1{fill:#edf0f9;}.cls-2{fill:#66b6ff;}.cls-3{fill:#3f9cff;}.cls-4,.cls-8{fill:#0070ff;}.cls-5,.cls-7{fill:none;}.cls-5,.cls-7,.cls-8{stroke:#0070ff;stroke-miterlimit:10;}.cls-5,.cls-8{stroke-width:1.81px;}.cls-6{fill:#d6e4ff;}.cls-7{stroke-width:0.91px;}</style></defs><g id="Layer_2" data-name="Layer 2"><g id="Layer_1-2" data-name="Layer 1"><rect class="cls-1" width="121.48" height="121.48" rx="8.38"/><path class="cls-2" d="M81,45.6v19H62a19,19,0,1,0,19-19Z"/><path class="cls-3" d="M59.11,61.7h19v-19A19,19,0,0,0,59.11,61.7Z"/><path class="cls-4" d="M64.59,61.68h3.26v-16a19.26,19.26,0,0,0-3.26,2.63Z"/><path class="cls-4" d="M64.59,74.2a19.29,19.29,0,0,0,3.26,4.1V64.57H64.59Z"/><path class="cls-5" d="M106.52,60.25,81.8,79.67l-7.14-7L58.53,86"/><rect class="cls-6" x="13.9" y="29.83" width="51.53" height="61.82" rx="4.62"/><path class="cls-3" d="M30.37,37.62H21.49a.81.81,0,0,0-.81.8V47.3a.81.81,0,0,0,.81.81h8.88a.81.81,0,0,0,.81-.81V38.42A.8.8,0,0,0,30.37,37.62Zm-.13,8.74a.81.81,0,0,1-.81.81h-7a.8.8,0,0,1-.8-.81v-7a.8.8,0,0,1,.8-.8h7a.8.8,0,0,1,.81.8Z"/><path class="cls-3" d="M30.37,53.07H21.49a.81.81,0,0,0-.81.81v8.88a.81.81,0,0,0,.81.81h8.88a.81.81,0,0,0,.81-.81V53.88A.81.81,0,0,0,30.37,53.07Zm-.13,8.75a.8.8,0,0,1-.81.8h-7a.8.8,0,0,1-.8-.8v-7a.8.8,0,0,1,.8-.8h7a.8.8,0,0,1,.81.8Z"/><path class="cls-3" d="M30.37,68.53H21.49a.81.81,0,0,0-.81.81v8.88a.81.81,0,0,0,.81.8h8.88a.8.8,0,0,0,.81-.8V69.34A.81.81,0,0,0,30.37,68.53Zm-.13,8.75a.8.8,0,0,1-.81.8h-7a.8.8,0,0,1-.8-.8v-7a.8.8,0,0,1,.8-.81h7a.81.81,0,0,1,.81.81Z"/><rect class="cls-2" x="35.09" y="38.49" width="22.9" height="1.17" rx="0.58"/><rect class="cls-2" x="35.09" y="41.02" width="22.9" height="1.17" rx="0.58"/><rect class="cls-2" x="35.09" y="43.54" width="22.9" height="1.17" rx="0.58"/><rect class="cls-2" x="35.09" y="46.07" width="11.45" height="1.17" rx="0.58"/><path class="cls-7" d="M23.29,42.14,26,44.8q3.33-4.08,6.67-8.14"/><path class="cls-7" d="M23.23,57.78,26,60.44q3.33-4.06,6.67-8.14"/><path class="cls-7" d="M23.29,73,26,75.68l6.67-8.13"/><rect class="cls-2" x="35.09" y="53.94" width="22.9" height="1.17" rx="0.58"/><rect class="cls-2" x="35.09" y="56.47" width="22.9" height="1.17" rx="0.58"/><rect class="cls-2" x="35.09" y="59" width="22.9" height="1.17" rx="0.58"/><rect class="cls-2" x="35.09" y="61.53" width="11.45" height="1.17" rx="0.58"/><rect class="cls-2" x="35.09" y="69.4" width="22.9" height="1.17" rx="0.58"/><rect class="cls-2" x="35.09" y="71.93" width="22.9" height="1.17" rx="0.58"/><rect class="cls-2" x="35.09" y="74.46" width="22.9" height="1.17" rx="0.58"/><rect class="cls-2" x="35.09" y="76.98" width="11.45" height="1.17" rx="0.58"/><path class="cls-8" d="M101.69,59.46l5.89-.09L106,64.93Z"/></g></g></svg>