<svg xmlns="http://www.w3.org/2000/svg" viewBox="0 0 121.48 121.48"><defs><style>.cls-1{fill:#edf0f9;}.cls-2{fill:none;stroke-width:5.91px;}.cls-2,.cls-7{stroke:#0070ff;}.cls-2,.cls-6,.cls-7{stroke-miterlimit:10;}.cls-3{fill:#3f9cff;}.cls-4{fill:#66b6ff;}.cls-5,.cls-6{fill:#d6e4ff;}.cls-6{stroke:#d6e4ff;stroke-width:0.74px;}.cls-7{fill:#0070ff;stroke-width:2.21px;}</style></defs><g id="Layer_2" data-name="Layer 2"><g id="Layer_1-2" data-name="Layer 1"><rect class="cls-1" width="121.48" height="121.48" rx="8.38"/><path class="cls-2" d="M74.42,22.54A24.85,24.85,0,0,1,98.51,39.41"/><path class="cls-3" d="M101.65,74.59A25.53,25.53,0,0,0,76.13,49.07v51A25.53,25.53,0,0,0,101.65,74.59Z"/><path class="cls-4" d="M76.79,49.07a25.52,25.52,0,1,0,0,51Z"/><path class="cls-5" d="M69.22,64.13h7.34C81.25,64.13,85,65.81,85,71c0,5-3.83,7.24-8.35,7.24H74.05v7.24H69.22ZM76.4,74.4c2.65,0,3.91-1.19,3.91-3.41s-1.43-3-4-3H74.05V74.4Z"/><path class="cls-3" d="M69.26,46.89A25.52,25.52,0,0,0,43.74,21.37v51A25.52,25.52,0,0,0,69.26,46.89Z"/><path class="cls-4" d="M44.4,21.37a25.52,25.52,0,1,0,0,51Z"/><path class="cls-6" d="M36.64,54.57l1.58-1.84a8.72,8.72,0,0,0,6.07,2.57c2.85,0,4.49-1.36,4.49-3.26,0-2.21-1.61-2.85-3.7-3.73l-3-1.33c-2.06-.82-4.46-2.28-4.46-5.34s2.85-5.5,6.8-5.5A9,9,0,0,1,50.8,38.7l-1.39,1.7a7.29,7.29,0,0,0-5.09-1.92c-2.4,0-4,1.13-4,3s1.93,2.72,3.7,3.41l2.91,1.3c2.56,1,4.58,2.47,4.58,5.53,0,3.29-2.78,5.92-7.33,5.92A10.58,10.58,0,0,1,36.64,54.57Z"/><rect class="cls-6" x="43.26" y="34.44" width="1.61" height="24.89"/><path class="cls-7" d="M102.59,32.22,100.8,43.89,90.31,39Z"/><path class="cls-2" d="M49.09,97.13A24.88,24.88,0,0,1,25,80.26"/><path class="cls-7" d="M20.91,87.45l1.8-11.67,10.49,4.9Z"/></g></g></svg>