<svg xmlns="http://www.w3.org/2000/svg" viewBox="0 0 121.48 121.48"><defs><style>.cls-1{fill:#edf0f9;}.cls-2{fill:#d6e4ff;}.cls-3,.cls-4{fill:#3f9cff;}.cls-4{stroke:#3f9cff;stroke-width:4.8px;}.cls-4,.cls-8{stroke-miterlimit:10;}.cls-5{fill:#66b6ff;}.cls-6{fill:#0070ff;}.cls-7{fill:#fff;}.cls-8{fill:none;stroke:#0070ff;stroke-width:1.85px;}</style></defs><g id="Layer_2" data-name="Layer 2"><g id="Layer_1-2" data-name="Layer 1"><rect class="cls-1" width="121.48" height="121.48" rx="8.38"/><path class="cls-2" d="M102.42,29.16H19.68a3.48,3.48,0,0,0-3.48,3.48V89.85a3.48,3.48,0,0,0,3.48,3.48h82.74a3.48,3.48,0,0,0,3.48-3.48V32.64A3.48,3.48,0,0,0,102.42,29.16Zm0,56.89A3.48,3.48,0,0,1,99,89.54H23.15a3.48,3.48,0,0,1-3.48-3.49V36.44A3.48,3.48,0,0,1,23.15,33H99a3.48,3.48,0,0,1,3.48,3.49Z"/><circle class="cls-3" cx="42.04" cy="49.93" r="10.7"/><path class="cls-4" d="M42,63.92c-9.51,0-17.22,4-17.22,8.84H59.25C59.25,67.88,51.54,63.92,42,63.92Z"/><path class="cls-5" d="M99.59,25.44H16.85a3.48,3.48,0,0,0-3.48,3.49v57.2a3.48,3.48,0,0,0,3.48,3.49H99.59a3.48,3.48,0,0,0,3.48-3.49V28.93A3.48,3.48,0,0,0,99.59,25.44Zm0,56.9a3.49,3.49,0,0,1-3.48,3.49H20.32a3.49,3.49,0,0,1-3.48-3.49V32.72a3.48,3.48,0,0,1,3.48-3.48h75.8a3.48,3.48,0,0,1,3.48,3.48Z"/><rect class="cls-5" x="65.01" y="42.71" width="29.35" height="2.71" rx="0.71"/><rect class="cls-5" x="65.01" y="48.57" width="29.35" height="2.71" rx="0.71"/><rect class="cls-5" x="65.01" y="54.44" width="14.68" height="2.71" rx="0.71"/><circle class="cls-6" cx="96.24" cy="84.16" r="11.87"/><ellipse class="cls-7" cx="96.15" cy="84.09" rx="7.85" ry="7.87"/><polyline class="cls-8" points="92.08 84.09 95.48 87 100.57 80.45"/></g></g></svg>