<svg width="1920" height="1080" viewBox="0 0 1920 1080" fill="none" xmlns="http://www.w3.org/2000/svg">
<g clip-path="url(#clip0_846_764)">
<rect width="1920" height="1080" fill="#F7F7F7"/>
<circle cx="1185.08" cy="250.079" r="316.182" transform="rotate(163.199 1185.08 250.079)" fill="url(#paint0_linear_846_764)" fill-opacity="0.66"/>
<circle cx="1921.52" cy="356.521" r="150.661" transform="rotate(-165 1921.52 356.521)" fill="url(#paint1_linear_846_764)" fill-opacity="0.66"/>
<circle cx="200.286" cy="1052.29" r="174.094" transform="rotate(-126.404 200.286 1052.29)" fill="url(#paint2_linear_846_764)" fill-opacity="0.66"/>
<circle cx="16.6022" cy="558.602" r="85.6887" transform="rotate(106.604 16.6022 558.602)" fill="url(#paint3_linear_846_764)" fill-opacity="0.66"/>
<circle cx="341.039" cy="144.039" r="225.5" transform="rotate(-60 341.039 144.039)" fill="url(#paint4_linear_846_764)" fill-opacity="0.66"/>
<circle cx="1563.26" cy="1058.26" r="385.637" transform="rotate(69.503 1563.26 1058.26)" fill="url(#paint5_linear_846_764)" fill-opacity="0.66"/>
</g>
<defs>
<linearGradient id="paint0_linear_846_764" x1="1185.08" y1="-66.1034" x2="1185.08" y2="566.261" gradientUnits="userSpaceOnUse">
<stop stop-color="#0070FF"/>
<stop offset="1" stop-color="white"/>
</linearGradient>
<linearGradient id="paint1_linear_846_764" x1="1921.52" y1="205.86" x2="1921.52" y2="507.182" gradientUnits="userSpaceOnUse">
<stop stop-color="#0070FF"/>
<stop offset="1" stop-color="white"/>
</linearGradient>
<linearGradient id="paint2_linear_846_764" x1="200.286" y1="878.193" x2="200.286" y2="1226.38" gradientUnits="userSpaceOnUse">
<stop stop-color="#0070FF"/>
<stop offset="1" stop-color="white"/>
</linearGradient>
<linearGradient id="paint3_linear_846_764" x1="16.6022" y1="472.913" x2="16.6022" y2="644.291" gradientUnits="userSpaceOnUse">
<stop stop-color="#0070FF"/>
<stop offset="1" stop-color="white"/>
</linearGradient>
<linearGradient id="paint4_linear_846_764" x1="341.039" y1="-81.4614" x2="341.039" y2="369.539" gradientUnits="userSpaceOnUse">
<stop stop-color="#0070FF"/>
<stop offset="1" stop-color="white"/>
</linearGradient>
<linearGradient id="paint5_linear_846_764" x1="1563.26" y1="672.62" x2="1563.26" y2="1443.89" gradientUnits="userSpaceOnUse">
<stop stop-color="#0070FF"/>
<stop offset="1" stop-color="white"/>
</linearGradient>
<clipPath id="clip0_846_764">
<rect width="1920" height="1080" fill="white"/>
</clipPath>
</defs>
</svg>
