<svg width="231" height="231" viewBox="0 0 231 231" fill="none" xmlns="http://www.w3.org/2000/svg">
<path fill-rule="evenodd" clip-rule="evenodd" d="M154 86.625C154 96.8358 149.944 106.628 142.724 113.849C135.503 121.069 125.711 125.125 115.5 125.125C105.289 125.125 95.4965 121.069 88.2764 113.849C81.0562 106.628 77 96.8358 77 86.625C77 76.4142 81.0562 66.6215 88.2764 59.4014C95.4965 52.1812 105.289 48.125 115.5 48.125C125.711 48.125 135.503 52.1812 142.724 59.4014C149.944 66.6215 154 76.4142 154 86.625ZM134.75 86.625C134.75 91.7304 132.722 96.6267 129.112 100.237C125.502 103.847 120.605 105.875 115.5 105.875C110.395 105.875 105.498 103.847 101.888 100.237C98.2781 96.6267 96.25 91.7304 96.25 86.625C96.25 81.5196 98.2781 76.6233 101.888 73.0132C105.498 69.4031 110.395 67.375 115.5 67.375C120.605 67.375 125.502 69.4031 129.112 73.0132C132.722 76.6233 134.75 81.5196 134.75 86.625Z" fill="#0070FF"/>
<path fill-rule="evenodd" clip-rule="evenodd" d="M115.5 9.625C57.0281 9.625 9.625 57.0281 9.625 115.5C9.625 173.972 57.0281 221.375 115.5 221.375C173.972 221.375 221.375 173.972 221.375 115.5C221.375 57.0281 173.972 9.625 115.5 9.625ZM28.875 115.5C28.875 135.616 35.7376 154.135 47.2395 168.842C55.3171 158.234 65.7378 149.637 77.6875 143.724C89.6373 137.81 102.793 134.738 116.126 134.75C129.286 134.738 142.276 137.729 154.105 143.497C165.934 149.265 176.291 157.657 184.386 168.033C192.726 157.095 198.341 144.329 200.767 130.79C203.193 117.251 202.36 103.33 198.337 90.1765C194.315 77.0234 187.218 65.0173 177.634 55.1516C168.05 45.2859 156.255 37.8441 143.224 33.4421C130.193 29.0401 116.301 27.8044 102.697 29.8372C89.094 31.8701 76.1702 37.113 64.9954 45.1321C53.8206 53.1513 44.7159 63.7163 38.4348 75.9528C32.1537 88.1893 28.8767 101.746 28.875 115.5ZM115.5 202.125C95.6143 202.155 76.3288 195.314 60.907 182.76C67.1144 173.873 75.3766 166.618 84.9906 161.61C94.6046 156.603 105.286 153.992 116.126 154C126.83 153.991 137.382 156.537 146.906 161.425C156.429 166.313 164.649 173.403 170.882 182.105C155.341 195.067 135.737 202.153 115.5 202.125Z" fill="#0070FF"/>
</svg>
